<?xml version="1.0" encoding="UTF-8" standalone="no"?>
<!-- Created with Inkscape (http://www.inkscape.org/) -->

<svg
   xmlns:dc="http://purl.org/dc/elements/1.1/"
   xmlns:cc="http://creativecommons.org/ns#"
   xmlns:rdf="http://www.w3.org/1999/02/22-rdf-syntax-ns#"
   xmlns:svg="http://www.w3.org/2000/svg"
   xmlns="http://www.w3.org/2000/svg"
   xmlns:xlink="http://www.w3.org/1999/xlink"
   xmlns:sodipodi="http://sodipodi.sourceforge.net/DTD/sodipodi-0.dtd"
   xmlns:inkscape="http://www.inkscape.org/namespaces/inkscape"
   width="330"
   height="285"
   viewBox="0 0 87.31249 75.406239"
   version="1.1"
   id="svg8"
   inkscape:version="0.92.2 (5c3e80d, 2017-08-06)"
   sodipodi:docname="bg.svg">
  <defs
     id="defs2">
    <linearGradient
       inkscape:collect="always"
       id="linearGradient993">
      <stop
         style="stop-color:#000000;stop-opacity:1;"
         offset="0"
         id="stop989" />
      <stop
         style="stop-color:#000000;stop-opacity:0;"
         offset="1"
         id="stop991" />
    </linearGradient>
    <linearGradient
       inkscape:collect="always"
       id="linearGradient985">
      <stop
         style="stop-color:#000000;stop-opacity:1;"
         offset="0"
         id="stop981" />
      <stop
         style="stop-color:#000000;stop-opacity:0;"
         offset="1"
         id="stop983" />
    </linearGradient>
    <linearGradient
       inkscape:collect="always"
       id="linearGradient977">
      <stop
         style="stop-color:#000000;stop-opacity:1;"
         offset="0"
         id="stop973" />
      <stop
         style="stop-color:#000000;stop-opacity:0;"
         offset="1"
         id="stop975" />
    </linearGradient>
    <linearGradient
       inkscape:collect="always"
       id="linearGradient969">
      <stop
         style="stop-color:#000000;stop-opacity:1;"
         offset="0"
         id="stop965" />
      <stop
         style="stop-color:#000000;stop-opacity:0;"
         offset="1"
         id="stop967" />
    </linearGradient>
    <linearGradient
       inkscape:collect="always"
       id="linearGradient961">
      <stop
         style="stop-color:#000000;stop-opacity:1;"
         offset="0"
         id="stop957" />
      <stop
         style="stop-color:#000000;stop-opacity:0;"
         offset="1"
         id="stop959" />
    </linearGradient>
    <linearGradient
       inkscape:collect="always"
       id="linearGradient953">
      <stop
         style="stop-color:#000000;stop-opacity:1;"
         offset="0"
         id="stop949" />
      <stop
         style="stop-color:#000000;stop-opacity:0;"
         offset="1"
         id="stop951" />
    </linearGradient>
    <linearGradient
       inkscape:collect="always"
       id="linearGradient945">
      <stop
         style="stop-color:#000000;stop-opacity:1;"
         offset="0"
         id="stop941" />
      <stop
         style="stop-color:#000000;stop-opacity:0;"
         offset="1"
         id="stop943" />
    </linearGradient>
    <linearGradient
       inkscape:collect="always"
       id="linearGradient937">
      <stop
         style="stop-color:#000000;stop-opacity:1;"
         offset="0"
         id="stop933" />
      <stop
         style="stop-color:#000000;stop-opacity:0;"
         offset="1"
         id="stop935" />
    </linearGradient>
    <linearGradient
       inkscape:collect="always"
       id="linearGradient838">
      <stop
         style="stop-color:#ffffff;stop-opacity:1"
         offset="0"
         id="stop834" />
      <stop
         style="stop-color:#dddddd;stop-opacity:1"
         offset="1"
         id="stop836" />
    </linearGradient>
    <linearGradient
       inkscape:collect="always"
       xlink:href="#linearGradient838"
       id="linearGradient842"
       x1="4.3030071"
       y1="227.02885"
       x2="82.131882"
       y2="290.4519"
       gradientUnits="userSpaceOnUse" />
    <linearGradient
       inkscape:collect="always"
       xlink:href="#linearGradient937"
       id="linearGradient939" />
    <linearGradient
       inkscape:collect="always"
       xlink:href="#linearGradient945"
       id="linearGradient947" />
    <linearGradient
       inkscape:collect="always"
       xlink:href="#linearGradient953"
       id="linearGradient955" />
    <linearGradient
       inkscape:collect="always"
       xlink:href="#linearGradient961"
       id="linearGradient963" />
    <linearGradient
       inkscape:collect="always"
       xlink:href="#linearGradient969"
       id="linearGradient971" />
    <linearGradient
       inkscape:collect="always"
       xlink:href="#linearGradient977"
       id="linearGradient979" />
    <linearGradient
       inkscape:collect="always"
       xlink:href="#linearGradient985"
       id="linearGradient987" />
    <linearGradient
       inkscape:collect="always"
       xlink:href="#linearGradient993"
       id="linearGradient995" />
  </defs>
  <sodipodi:namedview
     id="base"
     pagecolor="#ffffff"
     bordercolor="#666666"
     borderopacity="1.0"
     inkscape:pageopacity="0.0"
     inkscape:pageshadow="2"
     inkscape:zoom="4"
     inkscape:cx="153.29158"
     inkscape:cy="71.787045"
     inkscape:document-units="px"
     inkscape:current-layer="layer1"
     showgrid="false"
     inkscape:snap-global="false"
     inkscape:snap-bbox="true"
     inkscape:bbox-paths="true"
     inkscape:bbox-nodes="true"
     inkscape:snap-bbox-edge-midpoints="true"
     inkscape:snap-bbox-midpoints="true"
     inkscape:object-paths="true"
     inkscape:snap-intersection-paths="true"
     inkscape:snap-smooth-nodes="true"
     inkscape:snap-midpoints="true"
     inkscape:snap-object-midpoints="true"
     inkscape:snap-center="true"
     inkscape:snap-text-baseline="true"
     inkscape:snap-page="true"
     inkscape:window-width="1600"
     inkscape:window-height="837"
     inkscape:window-x="-8"
     inkscape:window-y="-8"
     inkscape:window-maximized="1"
     fit-margin-top="0"
     fit-margin-left="0"
     fit-margin-right="0"
     fit-margin-bottom="0"
     showborder="true"
     units="px"
     inkscape:pagecheckerboard="false" />
  <metadata
     id="metadata5">
    <rdf:RDF>
      <cc:Work
         rdf:about="">
        <dc:format>image/svg+xml</dc:format>
        <dc:type
           rdf:resource="http://purl.org/dc/dcmitype/StillImage" />
        <dc:title />
      </cc:Work>
    </rdf:RDF>
  </metadata>
  <g
     inkscape:label="Layer 1"
     inkscape:groupmode="layer"
     id="layer1"
     transform="translate(3.1850898e-5,-221.59376)">
    <path
       inkscape:connector-curvature="0"
       id="path974"
       d=""
       style="fill:url(#linearGradient939);fill-opacity:1;stroke:none;stroke-width:0.35277778" />
    <path
       inkscape:connector-curvature="0"
       id="path970"
       d=""
       style="fill:url(#linearGradient947);fill-opacity:1;stroke:none;stroke-width:0.35277778" />
    <path
       style="fill:url(#linearGradient955);fill-opacity:1;stroke:none;stroke-width:0.35149649"
       d=""
       id="path5079"
       inkscape:connector-curvature="0" />
    <path
       style="fill:url(#linearGradient963);fill-opacity:1;stroke:none;stroke-width:0.35149649"
       d=""
       id="path5075"
       inkscape:connector-curvature="0" />
    <path
       style="fill:url(#linearGradient971);fill-opacity:1;stroke:none;stroke-width:0.35277778"
       d=""
       id="path965"
       inkscape:connector-curvature="0" />
    <path
       style="fill:url(#linearGradient979);fill-opacity:1;stroke:none;stroke-width:0.35277778"
       d=""
       id="path967"
       inkscape:connector-curvature="0" />
    <path
       inkscape:connector-curvature="0"
       id="path969"
       d=""
       style="fill:url(#linearGradient987);fill-opacity:1;stroke:none;stroke-width:0.35149649" />
    <path
       inkscape:connector-curvature="0"
       id="path971"
       d=""
       style="fill:url(#linearGradient995);fill-opacity:1;stroke:none;stroke-width:0.35149649" />
    <path
       style="opacity:1;vector-effect:none;fill:#f9f9f9;fill-opacity:1;stroke:none;stroke-width:0.55265141px;stroke-linecap:butt;stroke-linejoin:miter;stroke-miterlimit:4;stroke-dasharray:none;stroke-dashoffset:0;stroke-opacity:1"
       d="m 60.549621,279.40941 c 0.620594,-0.44076 1.160333,-0.91804 1.618553,-1.42847 l 0.01463,5.59748 c 0.0044,1.54048 1.079396,2.6152 2.626433,2.65946 l -0.0063,-19.14607 c 0.06755,-3.75821 1.07084,-6.15699 3.010495,-7.17116 0.107617,-0.0465 0.213315,-0.0961 0.316793,-0.14932 0.200253,-0.0853 0.408958,-0.15824 0.62736,-0.21681 1.366226,-0.36591 2.606953,-0.11907 3.735601,0.73892 1.115097,0.86106 1.889769,2.07427 2.302965,3.61637 0.282717,1.05508 0.431692,2.20439 0.466107,3.47081 0.01275,1.24304 -0.08726,2.4881 -0.331141,3.74234 -0.251202,1.22707 -0.748736,2.34572 -1.479128,3.35381 -0.710491,0.97309 -1.6039,1.59005 -2.686035,1.87952 -1.62329,0.43497 -3.209766,0.0337 -4.735787,-1.22462 -0.126713,-0.0465 -0.239739,-0.0372 -0.340475,0.0286 -0.108253,0.0286 -0.180838,0.13498 -0.212683,0.28844 -0.0096,0.11908 0.03185,0.22636 0.141042,0.3101 1.762547,1.384 3.753019,1.77769 5.998546,1.17648 1.623255,-0.43497 2.959902,-1.34433 4.01641,-2.75815 1.087105,-1.40775 1.770917,-2.96825 2.054849,-4.66818 0.303738,-1.73407 0.241333,-3.42797 -0.193571,-5.05122 -0.569104,-2.12394 -1.6797,-3.72552 -3.314707,-4.79539 -1.557128,-1.02837 -3.282772,-1.3437 -5.192919,-0.91942 -1.35667,0.27477 -2.52216,0.79315 -4.112276,1.2916 -0.534269,0.16747 -1.062906,0.26044 -1.543878,0.29767 -0.502432,0.0191 -1.022993,-0.0286 -1.551882,-0.16364 -0.549597,-0.15728 -1.039725,-0.41798 -1.480393,-0.76327 -0.447879,-0.3729 -0.877776,-0.89535 -1.28997,-1.56821 -0.381154,-0.66628 -0.683485,-1.46936 -0.937347,-2.41646 -0.159735,-0.59606 -0.289025,-1.22377 -0.384364,-1.88243 -0.01275,-0.11175 -0.02677,-0.22285 -0.04292,-0.334 -0.0181,-0.14551 -0.03756,-0.29003 -0.05229,-0.43853 -0.06353,-0.93986 -0.03587,-1.919 0.08655,-2.92298 0.101749,-1.02753 0.313572,-1.96875 0.631855,-2.83707 0.348978,-0.86176 0.855523,-1.62121 1.537765,-2.26801 0.668566,-0.6427 1.503495,-1.0978 2.477057,-1.36823 1.041151,-0.28909 1.989569,-0.26775 2.854059,0.0376 0.89522,0.31106 1.455125,0.88607 1.687153,1.75159 0.184986,0.6899 -0.0027,1.45076 -0.545636,2.29206 -0.515835,0.83426 -1.223016,1.6038 -2.108048,2.30459 -0.898431,0.70525 -1.828869,1.34566 -2.794427,1.90869 -0.97541,0.58016 -1.81149,0.97582 -2.520636,1.19732 -0.189403,0.0512 -0.289249,0.1646 -0.320897,0.31838 -0.04167,0.17033 -0.0019,0.31924 0.116048,0.43276 0.09529,0.0838 0.232929,0.11177 0.422197,0.0649 0.874663,-0.30691 1.84207,-0.75436 2.885131,-1.3528 1.033049,-0.58144 2.013884,-1.25043 2.942208,-2.0061 0.948104,-0.7904 1.670509,-1.6655 2.197836,-2.61876 0.547482,-0.98761 0.701294,-1.92794 0.469292,-2.79345 -0.01911,-0.0672 -0.03756,-0.13308 -0.05862,-0.1974 0.530742,0.1315 1.093759,0.11749 1.692315,-0.043 1.041572,-0.27923 1.799284,-0.85888 2.252971,-1.76347 0.457041,-0.89089 0.604347,-1.64157 0.437553,-2.26323 -0.02865,-0.10888 -0.09233,-0.17669 -0.180836,-0.24165 -0.09966,-0.0443 -0.177663,-0.0652 -0.245475,-0.0465 -0.21618,0.0586 -0.322102,0.20249 -0.291319,0.42606 0.09266,0.67104 0.0036,1.25976 -0.283038,1.75767 -0.307872,0.47367 -0.666621,0.75848 -1.099553,0.87386 -0.581612,0.15631 -1.100952,0.003 -1.570468,-0.44943 -0.442516,-0.46133 -0.652512,-1.24604 -0.63761,-2.3809 l -0.02864,-8.90703 c 0.0096,-2.39511 -0.699507,-4.23434 -2.117379,-5.5218 -0.961115,-0.90898 -2.066083,-1.38197 -3.304436,-1.41644 -0.541575,-0.0128 -1.228647,0.0821 -1.770283,0.22476 -1.082155,0.28974 -2.070188,0.9313 -2.971057,1.89781 -0.888653,0.91896 -1.540273,2.0962 -1.961883,3.51505 -0.502851,-1.8392 -1.495256,-3.06111 -3.534455,-3.06111 -1.680788,0 -2.98254,1.59075 -3.239193,3.13545 -0.374453,-0.43792 -0.881211,-0.75827 -1.521108,-0.96137 -1.109964,-0.3547 -2.343401,-0.3574 -3.709652,0.006 -1.33919,0.35879 -2.500062,1.00353 -3.486837,1.92024 -0.96687,0.88243 -1.697502,1.88968 -2.204895,3.02619 -0.125274,0.30023 -0.236425,0.60518 -0.335629,0.91489 -0.47413,-0.57148 -1.026662,-1.06516 -1.658321,-1.47845 -1.655753,-1.0935 -3.501593,-1.38125 -5.557736,-0.8303 -1.885754,0.50527 -3.163564,1.71004 -3.845557,3.61058 -0.331418,-1.17002 -1.391682,-1.85849 -2.592786,-1.88943 l 0.003,3.8215 c -0.892676,-0.89374 -1.920966,-1.49032 -3.08806,-1.8003 -1.259307,-0.33347 -2.59725,-0.36368 -4.02188,-0.0609 -1.178042,0.25025 -2.227438,0.70159 -3.147998,1.35601 -0.898922,0.62062 -1.645509,1.35111 -2.226052,2.19111 -0.558831,0.80598 -0.998347,1.70116 -1.3188141,2.68575 -0.3342027,0.9873 -0.5229722,1.98621 -0.5683695,2.98417 -0.024195,0.9644 0.061292,1.90477 0.2535561,2.8095 0.2649552,1.2467 0.6924035,2.31608 1.3130595,3.21435 0.606863,0.90175 1.329765,1.60744 2.16802,2.1164 0.860005,0.47655 1.786541,0.79421 2.779987,0.95533 0.634635,0.0802 1.271809,0.0926 1.911234,0.0372 l 0.0102,4.40175 -0.217008,0.0452 c -0.83872,0.22509 -1.627342,0.58164 -2.387302,1.04604 -0.729307,0.47063 -1.317848,1.03387 -1.751914,1.68716 -0.05867,0.10253 -0.06405,0.19166 -0.03521,0.2999 0.0293,0.1089 0.08119,0.19548 0.180807,0.24198 0.0887,0.0561 0.164476,0.0646 0.245566,0.0465 0.06765,-0.0191 0.153904,-0.0726 0.241395,-0.18053 0.554571,-0.96099 1.278444,-1.56066 2.184703,-1.80352 0.432848,-0.1162 0.929032,-0.10411 1.508271,0.003 l 0.0093,8.40024 c 0.0026,2.31672 0.8613,5.35523 3.528204,5.37696 0.264986,0.003 0.529601,-0.0191 0.786666,-0.0929 0.416287,-0.11145 0.786947,-0.26998 1.112699,-0.47411 -0.04043,0.3252 -0.04088,0.64215 0,0.95367 0.142124,1.08312 0.774922,2.03053 1.900342,2.8579 1.149617,0.79543 2.801389,1.3272 4.956993,1.60927 1.752252,0.22193 3.002712,0.49605 3.722147,0.81168 0.715704,0.2875 1.123848,0.81181 1.225862,1.59036 0.156639,1.19418 -0.267539,2.26706 -1.272663,3.21789 -1.008807,0.92321 -2.374024,1.49834 -4.068054,1.72049 -1.638744,0.21712 -3.043598,0.0623 -4.241781,-0.45807 -1.201942,-0.54861 -1.877444,-1.3919 -2.023127,-2.50269 l -0.0019,0.0191 c -0.06174,-0.47205 0.0067,-0.91934 0.221528,-1.32843 0.244132,-0.40004 0.598425,-0.71368 1.064302,-0.93094 0.02704,-0.006 0.0679,-0.0379 0.10353,-0.0802 0.166009,-0.13499 0.189501,-0.28018 0.05291,-0.45971 -0.143595,-0.24037 -0.348657,-0.29577 -0.584079,-0.15218 -0.567845,0.30054 -0.977207,0.73561 -1.242839,1.29283 -0.268999,0.52979 -0.364588,1.09382 -0.287879,1.6766 0.185838,1.41632 0.972151,2.45679 2.388582,3.13293 1.446219,0.68481 3.1115,0.88958 4.999939,0.64147 2.110553,-0.27699 3.820377,-1.024 5.127848,-2.25492 0.287527,-0.26711 0.536223,-0.54442 0.750439,-0.83058 0.480526,0.8652 1.251024,1.25782 2.309728,1.24575 l 0.0063,-11.4915 c 0.0019,-2.13355 0.329581,-3.97041 1.08193,-5.49137 0.783025,-1.51456 1.887679,-2.47778 3.294513,-2.85467 0.825149,-0.22254 1.558317,-0.24452 2.186602,-0.0649 0.62803,0.17925 1.130176,0.53828 1.498979,1.04826 0.388086,0.47594 0.667333,1.0827 0.831897,1.80677 0.1958,0.73045 0.298314,1.54359 0.313186,2.46772 l -0.0027,8.75446 c 0,1.57776 1.074521,2.72966 2.680297,2.64471 l -0.0071,-3.81733 c 0.397857,0.40978 0.831047,0.7598 1.30184,1.04569 0.860018,0.47654 1.786566,0.79451 2.78,0.95561 1.015089,0.12862 2.036308,0.0829 3.063681,-0.13627 1.164341,-0.24833 2.219493,-0.67361 3.15955,-1.30188 z M 39.315598,239.54779 c -0.06353,-0.93995 -0.03596,-1.91865 0.08655,-2.92267 0.101625,-1.02759 0.313253,-1.96872 0.631519,-2.83704 0.349006,-0.86185 0.855844,-1.62121 1.538088,-2.26802 0.668589,-0.64259 1.503698,-1.09778 2.477385,-1.36818 1.04125,-0.2891 1.989374,-0.26775 2.854043,0.0376 0.895156,0.31105 1.455148,0.88608 1.68716,1.75157 0.184816,0.68989 -0.0027,1.45078 -0.545931,2.2921 -0.515888,0.83431 -1.223043,1.6038 -2.108082,2.30458 -0.898416,0.70533 -1.828568,1.3456 -2.794089,1.90865 -0.975419,0.58019 -1.8119,0.97587 -2.520975,1.19733 -0.189503,0.0513 -0.288929,0.1646 -0.320567,0.31806 -0.04167,0.17034 -0.0019,0.31924 0.115736,0.43278 0.09541,0.0837 0.23324,0.11206 0.422503,0.0652 0.874662,-0.30692 1.842057,-0.7544 2.885128,-1.35282 1.033051,-0.5815 2.013562,-1.25044 2.941879,-2.00614 0.948076,-0.79032 1.670848,-1.66544 2.198156,-2.61873 0.670841,-1.23841 0.569647,-2.32272 0.569647,-3.68046 0,-0.44806 0.08914,-0.86166 0.312554,-1.24865 0.287339,-0.49697 0.652211,-0.81266 1.085141,-0.929 0.131871,-0.0357 0.269478,-0.05 0.410965,-0.0436 0.235855,0.009 0.482729,0.0783 0.733149,0.2009 0.43154,0.20344 0.751331,0.63935 0.932535,1.31596 0.08735,0.32454 0.134295,0.71714 0.141995,1.17969 l -0.01399,14.61931 c 0.609318,0.26521 1.186925,0.61896 1.714098,1.01843 0.345614,0.26203 0.669554,0.55185 0.967789,0.86619 l 0.01749,-13.48929 c 0.0027,-1.87192 0.443727,-3.48662 1.116209,-4.84605 0.756008,-1.5074 1.847091,-2.4663 3.294505,-2.85437 0.412562,-0.11112 0.802192,-0.17256 1.167024,-0.18338 0.364852,-0.0128 0.70522,0.0286 1.019285,0.1178 0.620765,0.1525 1.11553,0.4841 1.484237,0.99407 0.388078,0.47594 0.667709,1.08363 0.832182,1.80674 0.195802,0.73048 0.298324,1.54366 0.313288,2.46778 l -0.02543,8.92146 c 0.0027,0.73459 0.108892,1.37667 0.321218,1.92597 -1.059122,-0.29578 -2.227951,-0.27859 -3.515057,0.0663 -1.339191,0.35887 -2.50039,1.00349 -3.487165,1.92019 -0.96689,0.88256 -1.697172,1.89 -2.204556,3.02652 -0.124837,0.29928 -0.236014,0.60329 -0.334996,0.91203 -0.375157,-0.4664 -0.864205,-0.79608 -1.341267,-1.1576 -0.583105,-0.44188 -1.234002,-0.82747 -1.921499,-1.07901 -1.220892,-0.40313 -2.534269,-0.42288 -3.947206,-0.0442 -0.115158,0.0318 -0.226584,0.066 -0.337217,0.10191 -0.506403,0.14295 -1.110001,0.30914 -1.571119,0.42892 -0.541932,0.14073 -1.062995,0.26075 -1.543877,0.29769 -0.502415,0.0191 -1.023066,-0.0286 -1.551874,-0.16364 -0.549616,-0.15729 -1.039726,-0.41769 -1.480401,-0.76294 -0.447887,-0.37301 -0.877902,-0.8963 -1.289963,-1.56824 -0.381172,-0.66628 -0.683484,-1.46922 -0.937363,-2.41647 -0.168649,-0.6293 -0.3039,-1.29319 -0.400382,-1.99362 -0.02989,-0.21809 -0.05675,-0.43793 -0.07888,-0.66165 z m -10.229665,28.82035 c -0.6281,-0.17958 -1.122617,-0.51107 -1.483917,-0.99409 -0.368725,-0.51 -0.650915,-1.13021 -0.846627,-1.8606 -0.192017,-0.71662 -0.297814,-1.5443 -0.313545,-2.46808 l 0.02105,-22.98232 c 0.292595,-3.57257 1.592427,-5.67941 3.896532,-6.29696 0.426954,-0.11462 0.84164,-0.16875 1.244449,-0.16365 0.886236,0.0128 1.715177,0.31265 2.491136,0.90238 l -2.8e-5,-9e-5 c 1.115087,0.86095 1.889779,2.07427 2.302966,3.61637 0.282654,1.05507 0.431369,2.20428 0.465792,3.4708 0.014,1.24309 -0.08726,2.48819 -0.331142,3.74235 -0.251138,1.22713 -0.748733,2.34594 -1.479125,3.35413 -0.71051,0.97308 -1.603535,1.59006 -2.685731,1.87951 -1.623246,0.43499 -3.209739,0.0335 -4.735799,-1.2249 -0.388442,-0.30469 -0.863027,0.28622 -0.412248,0.62737 1.762529,1.384 3.753027,1.77767 5.998518,1.1765 0.913772,-0.24484 1.736719,-0.6401 2.469991,-1.19093 l -0.01178,10.32716 c -0.02614,2.06586 -0.428401,3.81189 -1.202469,5.2516 -0.743398,1.44617 -1.808668,2.34103 -3.215635,2.71625 -0.838551,0.2235 -1.551382,0.26967 -2.172201,0.11715 z M 18.599365,237.27593 c 0.995055,0.0191 1.871471,0.31875 2.622277,0.88795 1.095041,0.841 1.844712,2.21353 2.246556,4.10394 0.1398,0.65764 0.233659,1.36826 0.278264,2.11705 0.04787,0.76303 0.04696,1.56545 -0.0035,2.40622 -0.04734,0.85478 -0.202011,1.67502 -0.453613,2.44464 -0.221338,0.7773 -0.522991,1.51376 -0.907535,2.19723 -0.395431,0.69915 -0.909836,1.31034 -1.560213,1.82048 -0.669736,0.48549 -1.429458,0.81958 -2.306185,1.00563 -1.616389,0.34364 -2.957003,0.0984 -4.052015,-0.74273 -1.100865,-0.86848 -1.853756,-2.25471 -2.258421,-4.15878 -0.145658,-0.68489 -0.239675,-1.39467 -0.278263,-2.11704 -0.04578,-0.74934 -0.04361,-1.55191 0.0035,-2.40587 0.05025,-0.84112 0.177785,-1.65632 0.399107,-2.43314 0.242829,-0.81043 0.558344,-1.55086 0.962356,-2.20907 0.384499,-0.68318 0.902057,-1.27982 1.571765,-1.7657 0.656067,-0.4834 1.429142,-0.81919 2.305859,-1.00528 0.500829,-0.10635 0.977763,-0.15474 1.430062,-0.1455 z m 21.712058,28.75309 c -0.824125,0.79727 -1.472997,1.82038 -1.950677,3.05505 V 252.4392 c 0,-0.0532 -0.0019,-0.10317 -0.0027,-0.1538 v -2.2e-4 c 2.8e-5,-0.83993 0.131433,-1.24825 0.354877,-1.63523 0.287366,-0.49696 0.652191,-0.81237 1.085122,-0.92871 0.13188,-0.0357 0.269478,-0.05 0.410975,-0.0439 0.235854,0.009 0.482746,0.078 0.733145,0.20121 h -7e-5 c 0.43145,0.20344 0.751019,0.63901 0.932224,1.31564 0.0978,0.36489 0.159218,0.75484 0.196497,1.16526 l -0.0044,11.7906 c 0.578961,-0.23721 1.190616,-0.39091 1.812176,-0.4559 0.218785,-0.0223 0.438544,-0.0347 0.658454,-0.0357 0.05202,-2.4e-4 0.104102,8.9e-4 0.15613,0.003 l 0.0096,-9.71428 c 0.185073,-3.96257 1.499236,-6.2835 3.937896,-6.93715 0.426957,-0.11429 0.841605,-0.16906 1.244449,-0.16365 h 0.0019 c 0.886244,0.0128 1.715194,0.31297 2.491146,0.9027 1.115103,0.86106 1.889777,2.07418 2.30299,3.61638 0.282628,1.05506 0.431369,2.20429 0.465795,3.47083 0.014,1.24305 -0.08727,2.48809 -0.331162,3.74233 -0.251128,1.22718 -0.748501,2.34561 -1.478792,3.35382 -0.710521,0.97306 -1.603902,1.59005 -2.686056,1.87948 -1.62328,0.43498 -3.209747,0.0337 -4.735788,-1.22457 -0.126587,-0.0465 -0.239834,-0.0372 -0.340439,0.0286 -0.108224,0.0286 -0.180873,0.13499 -0.212558,0.28845 -0.01117,0.11908 0.03061,0.22637 0.141043,0.31011 0.465631,0.36559 0.947523,0.66003 1.443604,0.8907 0.969965,0.38676 1.847196,1.00346 2.533527,1.7925 0.290614,0.31296 -0.197782,0.73809 -0.467722,0.4071 -0.63215,-0.72675 -1.44804,-1.2956 -2.363362,-1.64486 -0.122768,-0.0469 -0.231752,-0.085 -0.341858,-0.11907 -1.518796,-0.47143 -3.244949,-0.29928 -4.685946,0.50485 -0.488941,0.27284 -0.902771,0.60008 -1.310334,0.98509 z m 0.567915,-18.58525 c 0.118181,0 0.236874,0.006 0.355197,0.0191 0.673848,0.0719 1.318803,0.35107 1.83303,0.79245 0.514243,0.44133 0.888161,1.0362 1.061405,1.69131 0.105771,0.39986 -0.493998,0.55856 -0.599786,0.15857 -0.140435,-0.53109 -0.448049,-1.02226 -0.864909,-1.38006 -0.416847,-0.35777 -0.948884,-0.58731 -1.495133,-0.64564 -0.766162,-0.0818 -1.571648,0.17767 -2.183417,0.66648 -0.468855,0.3745 -0.835626,0.88302 -1.042172,1.44643 -0.07218,0.1977 -0.316176,0.26744 -0.482139,0.13817 -0.186503,-0.1455 -0.389702,-0.27063 -0.604597,-0.36962 -0.177625,-0.0818 -0.363709,-0.14613 -0.553622,-0.1926 -0.421974,-0.0856 -0.265908,-0.72141 0.147796,-0.60205 0.228467,0.0561 0.451527,0.13307 0.665174,0.23145 0.163778,0.0755 0.309369,0.18274 0.460343,0.28112 0.255145,-0.53143 0.559921,-1.04901 1.021326,-1.41758 0.642349,-0.51307 1.454373,-0.81686 2.281504,-0.81715 z m -16.487585,3.52625 v 0 c 0.03088,-8.8e-4 0.06196,0.003 0.09198,0.009 0.228431,0.056 0.451554,0.13307 0.665182,0.23146 0.258582,0.11906 0.502334,0.26839 0.72674,0.44338 0.316946,0.25533 -0.0563,0.73442 -0.381473,0.4895 -0.186477,-0.1455 -0.389702,-0.26934 -0.604598,-0.36833 -0.177625,-0.0818 -0.363735,-0.14742 -0.55364,-0.19389 -0.349021,-0.0824 -0.302747,-0.59314 0.05546,-0.61164 z m 0.110478,5.56767 c 0.238301,-0.016 0.403765,0.23337 0.297807,0.44723 -0.13891,0.2894 -0.297681,0.56948 -0.474763,0.83732 -0.214428,0.32433 -0.45647,0.62998 -0.721278,0.91458 -0.07024,0.0809 -0.142857,0.15599 -0.230984,0.23782 -0.311374,0.28144 -0.650361,0.46893 -1.034905,0.57191 -0.473388,0.13117 -1.098372,0.12481 -1.861814,-0.0191 l 0.02643,-5.07464 c 0.584412,-0.22669 1.136516,-0.50848 1.652548,-0.85336 0.632253,-0.44913 1.180212,-0.93606 1.643883,-1.45731 l 0.0044,5.34456 c 0.161451,-0.24419 0.311821,-0.5061 0.43837,-0.77003 0.0474,-0.10284 0.147345,-0.17192 0.260497,-0.17957 z m -0.693854,6.63393 c 0.04095,1.6129 0.362751,2.9763 0.979347,4.08693 0.603072,1.11436 1.459113,1.92874 2.568416,2.4434 0.04346,0.0191 0.08709,0.035 0.130791,0.0522 -0.459157,0.14454 -0.889706,0.32229 -1.289314,0.53503 -0.820731,0.41871 -1.450223,0.89595 -1.901951,1.43614 -0.180299,0.23465 -0.338192,0.4721 -0.475414,0.71263 -0.304433,0.45903 -0.657773,0.73618 -1.0832,0.85049 -0.14359,0.0385 -0.284949,0.0582 -0.425594,0.0582 -1.434156,-0.11366 -1.789451,-1.55009 -1.79308,-2.71187 l -0.02961,-9.55459 c 0.18899,0.003 0.502477,-0.0719 0.935423,-0.18817 0.757483,-0.20343 1.438319,-0.53091 2.048436,-1.01301 0.118087,-0.0879 0.227672,-0.17797 0.333039,-0.26934 z m 32.905538,-1.51985 c 0.639314,7e-4 1.278344,0.0745 1.900991,0.22032 1.222803,0.28623 2.376685,0.85049 3.353817,1.6394 0.355857,0.25502 -0.06425,0.77592 -0.388864,0.48215 -0.903644,-0.72961 -1.975792,-1.25352 -3.106646,-1.51823 -0.921701,-0.21585 -1.884138,-0.26074 -2.821981,-0.13211 -0.42219,0.0733 -0.510953,-0.5708 -0.08459,-0.61423 0.380126,-0.0522 0.76377,-0.0777 1.147314,-0.0774 z m 0.280842,1.43423 v 0 c 0.995075,0.0191 1.87113,0.31845 2.621944,0.88767 1.095047,0.84093 1.845049,2.21363 2.246894,4.10394 0.139899,0.65761 0.233624,1.36732 0.278264,2.11702 0.0027,0.0416 0.0036,0.085 0.0054,0.12704 l 0.0054,1.94623 c -0.0054,0.1111 -0.009,0.22063 -0.01525,0.33304 -0.04738,0.8549 -0.202235,1.67505 -0.453917,2.44469 -0.221339,0.77728 -0.522688,1.51369 -0.907231,2.19718 -0.395438,0.6991 -0.909817,1.31039 -1.560206,1.82051 -0.669787,0.48643 -1.429649,0.81955 -2.306186,1.00564 -1.616125,0.34343 -2.956509,0.0984 -4.05137,-0.74277 -1.10088,-0.86844 -1.853755,-2.25446 -2.258429,-4.15844 -0.145655,-0.68493 -0.239735,-1.39466 -0.278265,-2.11703 -0.04587,-0.74933 -0.04336,-1.55226 0.0036,-2.40622 0.05024,-0.84115 0.177814,-1.65599 0.399107,-2.43279 0.242859,-0.81055 0.557911,-1.55085 0.962024,-2.20903 0.384491,-0.68332 0.902082,-1.28024 1.571763,-1.76605 0.656081,-0.4834 1.42964,-0.81919 2.306184,-1.00532 0.500853,-0.10634 0.977775,-0.15441 1.430069,-0.14517 z m -22.965644,6.17564 c 0.566785,0.26043 1.092084,0.60777 1.554445,1.02644 0.325554,0.27572 -0.107734,0.756 -0.415445,0.46035 -0.415239,-0.37598 -0.889341,-0.68808 -1.398348,-0.92196 -0.451278,-0.20727 -0.930804,-0.35491 -1.421083,-0.43406 -0.449109,-0.0725 -0.339047,-0.68578 0.09812,-0.6116 0.545091,0.0926 1.079887,0.24994 1.582307,0.48083 z m -0.576097,1.20581 c 0.95784,0.41106 1.491323,1.03282 1.602537,1.88016 0.05826,0.44381 -0.04355,0.85272 -0.291382,1.22454 -0.220035,0.36618 -0.525988,0.6176 -0.919392,0.74119 -0.147787,0.0621 -0.23143,0.1713 -0.241396,0.31457 -0.02132,0.15854 0.008,0.28463 0.106752,0.38208 0.125283,0.0984 0.254896,0.12512 0.402959,0.0599 0.568641,-0.1872 1.018222,-0.52937 1.334854,-1.02259 0.110124,-0.19135 0.195936,-0.38925 0.257092,-0.59244 l -0.0019,5.27083 c -0.134995,-0.13181 -0.276891,-0.25058 -0.42476,-0.35519 -0.376978,-0.29005 -0.861563,-0.53743 -1.456987,-0.77003 -0.59348,-0.21905 -1.164644,-0.39199 -1.705113,-0.51033 -0.50875,-0.12353 -1.129595,-0.22543 -1.849376,-0.3289 -1.038154,-0.16045 -1.907676,-0.32779 -2.6088,-0.50491 -0.671518,-0.16651 -1.274125,-0.45467 -1.804485,-0.83733 -0.5027,-0.38605 -0.792341,-0.86992 -0.870674,-1.46789 -0.03855,-0.29099 0.0027,-0.62066 0.153873,-0.97996 0.132994,-0.38489 0.349799,-0.78061 0.639217,-1.15728 0.317267,-0.38112 0.808322,-0.72638 1.445773,-1.03737 0.665049,-0.31362 1.455864,-0.53052 2.344339,-0.64692 0.624869,-0.0821 1.196273,-0.11747 1.715971,-0.10603 0.865962,0.0191 1.587314,0.16747 2.170882,0.44401 z"
       id="path48920"
       inkscape:connector-curvature="0"
       sodipodi:nodetypes="ccsccccccccccccccccccccccccccccccccccccccccccccccccccccccccccccccccsccccccccccccccccccccccccccccccccsscccccccccccccccccccccccccccscccscccccccccccccccccccccccccccccccccscsccccccccccccccccccccccccccsccccccccccccccccccsccccccccccccccccccccccccccccccccccccccccccccccccccccsssccccccccccccccccccccccccccccccccccccccccccccccsccccccccccccccccccccccccccccccccccccccccccccsscccccccccccccccccccacscc" />
  </g>
</svg>
