<?xml version="1.0" encoding="UTF-8" standalone="no"?>
<svg
   version="1.1"
   id="Layer_1"
   x="0px"
   y="0px"
   viewBox="0 0 110.00001 110"
   xml:space="preserve"
   sodipodi:docname="DarkMode-moon.svg"
   inkscape:version="1.4.2 (ebf0e94, 2025-05-08)"
   width="110"
   height="110"
   xmlns:inkscape="http://www.inkscape.org/namespaces/inkscape"
   xmlns:sodipodi="http://sodipodi.sourceforge.net/DTD/sodipodi-0.dtd"
   xmlns="http://www.w3.org/2000/svg"
   xmlns:svg="http://www.w3.org/2000/svg"><defs
     id="defs1" /><sodipodi:namedview
     id="namedview1"
     pagecolor="#ffffff"
     bordercolor="#000000"
     borderopacity="0.25"
     inkscape:showpageshadow="2"
     inkscape:pageopacity="0.0"
     inkscape:pagecheckerboard="0"
     inkscape:deskcolor="#d1d1d1"
     inkscape:zoom="2.0419914"
     inkscape:cx="27.424209"
     inkscape:cy="44.809198"
     inkscape:window-width="1360"
     inkscape:window-height="705"
     inkscape:window-x="-8"
     inkscape:window-y="-8"
     inkscape:window-maximized="1"
     inkscape:current-layer="Layer_1" /><style
     type="text/css"
     id="style1">.st0{fill-rule:evenodd;clip-rule:evenodd;}</style><path
     id="path4"
     style="fill:#000000;fill-opacity:1;stroke:none;stroke-width:1"
     d="m 53.753687,27.510227 v -1.03e-4 c -0.150732,-0.0042 -0.309633,-0.002 -0.47607,0.0077 -14.397312,0.879879 -25.773663,12.85591 -25.773663,27.432314 0,15.214896 12.3339,27.5488 27.548799,27.5488 12.037991,0 22.268905,-7.71713 26.014232,-18.478131 0.685213,-1.954418 -1.346983,-3.152204 -3.122317,-1.509245 -3.574025,3.309282 -8.362747,5.333005 -13.618663,5.333005 -11.072462,0 -20.050685,-8.978223 -20.050685,-20.050685 0,-7.420572 4.03496,-13.898912 10.02281,-17.363923 2.182664,-1.26288 1.716554,-2.854062 -0.544443,-2.919732 z M 110,55 C 110,85.328283 85.328283,110 55,110 24.671717,110 0,85.328283 0,55 0,24.671717 24.671717,0 55,0 c 30.328283,0 55,24.671717 55,55 z"
     sodipodi:nodetypes="cccssccssccsssss" /></svg>
