<?xml version="1.0" encoding="UTF-8" standalone="no"?>
<!-- Uploaded to: SVG Repo, www.svgrepo.com, Generator: SVG Repo Mixer Tools -->

<svg
   version="1.0"
   id="Layer_1"
   width="110"
   height="110"
   viewBox="0 0 110 110"
   enable-background="new 0 0 64 64"
   xml:space="preserve"
   sodipodi:docname="DarkMode-sun.svg"
   inkscape:version="1.4.2 (ebf0e94, 2025-05-08)"
   xmlns:inkscape="http://www.inkscape.org/namespaces/inkscape"
   xmlns:sodipodi="http://sodipodi.sourceforge.net/DTD/sodipodi-0.dtd"
   xmlns="http://www.w3.org/2000/svg"
   xmlns:svg="http://www.w3.org/2000/svg"><defs
   id="defs8" /><sodipodi:namedview
   id="namedview8"
   pagecolor="#ffffff"
   bordercolor="#000000"
   borderopacity="0.25"
   inkscape:showpageshadow="2"
   inkscape:pageopacity="0.0"
   inkscape:pagecheckerboard="0"
   inkscape:deskcolor="#d1d1d1"
   inkscape:zoom="3.2597622"
   inkscape:cx="51.844273"
   inkscape:cy="61.200783"
   inkscape:window-width="1360"
   inkscape:window-height="705"
   inkscape:window-x="-8"
   inkscape:window-y="-8"
   inkscape:window-maximized="1"
   inkscape:current-layer="Layer_1" />

<path
   id="circle7"
   style="fill:#ff4242;stroke-width:8;stroke-opacity:0.932056;paint-order:markers stroke fill"
   d="m 27.506959,33.973485 a 6.4742376,6.4742376 0 0 1 -6.474238,-6.474238 6.4742376,6.4742376 0 0 1 6.474238,-6.474237 6.4742376,6.4742376 0 0 1 6.474237,6.474237 6.4742376,6.4742376 0 0 1 -6.474237,6.474238 z m 54.986076,54.986082 a 6.4742376,6.4742376 0 0 1 -6.474238,-6.474238 6.4742376,6.4742376 0 0 1 6.474238,-6.474238 6.4742376,6.4742376 0 0 1 6.474237,6.474238 6.4742376,6.4742376 0 0 1 -6.474237,6.474238 z M 33.981193,82.485329 a 6.4742376,6.4742376 0 0 1 -6.474238,6.474238 6.4742376,6.4742376 0 0 1 -6.474238,-6.474238 6.4742376,6.4742376 0 0 1 6.474238,-6.474238 6.4742376,6.4742376 0 0 1 6.474238,6.474238 z M 88.96728,27.499247 a 6.4742376,6.4742376 0 0 1 -6.474238,6.474238 6.4742376,6.4742376 0 0 1 -6.474237,-6.474238 6.4742376,6.4742376 0 0 1 6.474237,-6.474237 6.4742376,6.4742376 0 0 1 6.474238,6.474237 z M 16.118968,61.466528 A 6.4742376,6.4742376 0 0 1 9.64473,54.99229 a 6.4742376,6.4742376 0 0 1 6.474238,-6.474237 6.4742376,6.4742376 0 0 1 6.474238,6.474237 6.4742376,6.4742376 0 0 1 -6.474238,6.474238 z m 77.762069,0 a 6.4742376,6.4742376 0 0 1 -6.474238,-6.474238 6.4742376,6.4742376 0 0 1 6.474238,-6.474237 6.4742376,6.4742376 0 0 1 6.474233,6.474237 6.4742376,6.4742376 0 0 1 -6.474233,6.474238 z M 61.474238,93.873323 A 6.4742376,6.4742376 0 0 1 55,100.34756 6.4742376,6.4742376 0 0 1 48.525762,93.873323 6.4742376,6.4742376 0 0 1 55,87.399086 a 6.4742376,6.4742376 0 0 1 6.474238,6.474237 z m 0,-77.762064 A 6.4742376,6.4742376 0 0 1 55,22.585496 6.4742376,6.4742376 0 0 1 48.525762,16.111259 6.4742376,6.4742376 0 0 1 55,9.6370206 6.4742376,6.4742376 0 0 1 61.474238,16.111259 Z M 80.930931,55.00525 c 2e-6,14.317685 -11.606776,25.924463 -25.924461,25.924461 -14.317683,0 -25.924459,-11.606777 -25.924457,-25.924461 0,-14.317682 11.606775,-25.924457 25.924457,-25.924457 14.317684,-2e-6 25.924461,11.606774 25.924461,25.924457 z" /></svg>
