<?xml version="1.0" encoding="UTF-8" standalone="no"?>
<svg
   shape-rendering="geometricPrecision"
   text-rendering="geometricPrecision"
   image-rendering="optimizeQuality"
   fill-rule="evenodd"
   clip-rule="evenodd"
   viewBox="0 0 424 511.54"
   version="1.1"
   id="svg3"
   sodipodi:docname="download-font-icon.svg"
   inkscape:version="1.4.2 (ebf0e94, 2025-05-08)"
   xmlns:inkscape="http://www.inkscape.org/namespaces/inkscape"
   xmlns:sodipodi="http://sodipodi.sourceforge.net/DTD/sodipodi-0.dtd"
   xmlns="http://www.w3.org/2000/svg"
   xmlns:svg="http://www.w3.org/2000/svg">
  <sodipodi:namedview
     id="namedview3"
     pagecolor="#ffffff"
     bordercolor="#000000"
     borderopacity="0.25"
     inkscape:showpageshadow="2"
     inkscape:pageopacity="0.0"
     inkscape:pagecheckerboard="0"
     inkscape:deskcolor="#d1d1d1"
     inkscape:zoom="0.45060014"
     inkscape:cx="93.209026"
     inkscape:cy="360.63016"
     inkscape:window-width="1360"
     inkscape:window-height="705"
     inkscape:window-x="-8"
     inkscape:window-y="-8"
     inkscape:window-maximized="1"
     inkscape:current-layer="svg3" />
  <defs
     id="defs3" />
  <path
     id="path7"
     style="font-weight:300;font-size:212.059px;font-family:'Bookman Old Style';-inkscape-font-specification:'Bookman Old Style, Light';direction:rtl;baseline-shift:baseline;clip-rule:nonzero;display:inline;overflow:visible;vector-effect:none;fill:#ff4242;fill-opacity:0.93333334;fill-rule:nonzero;stroke-linejoin:round;paint-order:markers stroke fill;image-rendering:auto;shape-rendering:auto;text-rendering:auto;enable-background:accumulate;stop-color:#000000"
     d="m 112.10156,120.62305 c -1.24882,5.5e-4 -2.36671,0.7746 -2.80664,1.94336 L 64.253906,242.16016 v -0.004 c -2.098576,5.55107 -3.894509,9.22795 -4.78125,10.44922 -1.038359,1.359 -2.169501,2.27394 -3.474609,2.88281 -0.951034,0.41386 -3.567866,0.88086 -7.369141,0.88086 -1.656786,1.7e-4 -2.999834,1.34321 -3,3 v 8.69922 c 1.66e-4,1.65679 1.343214,2.99983 3,3 h 43.177735 c 1.656786,-1.7e-4 2.999834,-1.34321 3,-3 v -8.69922 c -5.1e-4,-1.5875 -1.237562,-2.89985 -2.822266,-2.99405 -1.266516,-0.0745 -2.831602,-0.10938 -4.732422,-0.10938 -2.549192,0 -4.277472,-0.30091 -4.847656,-0.51171 -0.742173,-0.34242 -1.257583,-0.75895 -1.681641,-1.31836 -0.32811,-0.50942 -0.515625,-1.04712 -0.515625,-1.90039 0,-0.29809 0.450194,-2.57979 1.582031,-5.70899 0.0013,-0.003 0.0026,-0.007 0.0039,-0.01 l 10.470703,-29.28125 h 48.132805 l 8.83399,25.92382 v 0.002 c 0.95376,2.79316 1.66301,5.05256 2.11914,6.73047 0.45613,1.6779 0.61914,2.90865 0.61914,2.96679 0,1.00186 -0.22987,1.53086 -1.64648,2.45899 -0.007,0.005 -0.013,0.009 -0.0195,0.0137 0.19342,-0.12894 -1.75429,0.53125 -4.85937,0.53125 -1.67464,0 -3.37949,0.0741 -5.11524,0.21875 -1.55472,0.12913 -2.75105,1.42821 -2.75195,2.98828 v 8.69922 c 1.7e-4,1.65679 1.34321,2.99983 3,3 h 51.46289 c 1.65679,-1.7e-4 2.99983,-1.34321 3,-3 v -8.69922 c -1.7e-4,-1.65679 -1.34321,-2.99983 -3,-3 h -2.27929 c -3.26164,0 -5.47592,-0.77994 -7.12305,-2.16016 -1.45917,-1.33996 -3.67063,-5.0371 -5.79492,-10.8789 -0.003,-0.006 -0.005,-0.0117 -0.008,-0.0176 L 132,122.57813 c -0.43684,-1.17539 -1.55856,-1.95514 -2.8125,-1.95508 z m 4.14863,30.51367 18.0918,50.25195 H 98.244141 Z m 139.87698,27.36123 c 7.37557,0 12.70097,1.5704 16.28321,4.34375 0.008,0.006 0.0169,0.0118 0.0254,0.0176 3.37378,2.55755 5.23242,6.86698 5.23242,13.97071 v 8.64062 c -15.57199,1.71877 -28.17765,3.60486 -37.33594,5.72852 -9.70647,2.25078 -16.96263,4.82846 -21.9707,8.06445 -0.006,0.004 -0.0118,0.008 -0.0176,0.0117 -4.72834,3.10297 -8.40751,6.78183 -10.88672,11.04297 -0.007,0.0117 -0.0144,0.0234 -0.0215,0.0352 -2.37286,4.20991 -3.59571,8.76536 -3.59571,13.48437 0,7.82347 3.4943,14.86871 9.9336,20.48438 6.53561,5.69965 15.09645,8.50586 25.16601,8.50585 7.21777,0 14.37005,-1.39106 21.38867,-4.14062 6.05379,-2.37159 12.66505,-6.45185 19.69141,-11.625 0.85326,2.36599 1.93034,4.61139 3.47656,6.55664 0.008,0.01 0.0155,0.0196 0.0234,0.0293 2.45638,3.01104 5.62712,5.3251 9.35156,6.87695 0.006,0.003 0.013,0.007 0.0195,0.01 3.85183,1.57217 8.3758,2.29296 13.5586,2.29296 4.91958,0 10.32842,-0.88786 16.26172,-2.60351 1.28263,-0.3713 2.16552,-1.54557 2.16601,-2.88086 v -9.00977 c -10e-4,-2.05849 -2.02769,-3.5044 -3.97461,-2.83593 -4.20894,1.44682 -7.71696,2.11523 -10.41406,2.11523 -2.52949,0 -4.27573,-0.57163 -5.59961,-1.54687 -1.23885,-1.02695 -2.2165,-2.58867 -2.85351,-5.01954 -0.22014,-1.13618 -0.45508,-4.8571 -0.45508,-10.41796 v -39.86524 c 0,-9.53621 -0.86148,-16.25393 -3.51563,-20.77148 -3.31098,-5.69467 -8.51713,-10.03924 -15.25781,-12.9336 l -0.01,-0.004 c -6.75404,-2.96688 -14.73097,-4.39258 -23.875,-4.39258 l 3e-4,-8e-5 c -9.75797,0 -18.36812,1.49394 -25.78125,4.57422 -7.24656,2.97108 -12.87082,6.86404 -16.66406,11.81445 -3.68956,4.74706 -5.69922,9.89451 -5.69922,15.18945 0,3.63966 1.03566,6.96688 3.24219,9.44922 0.0261,0.0292 0.0528,0.0578 0.0801,0.0859 2.2798,2.37099 5.48139,3.61328 8.89258,3.61328 3.05889,0 5.97361,-1.09751 8.11914,-3.17383 2.14499,-2.0758 3.53176,-4.94153 4.41601,-8.40039 0.65236,-2.54074 1.18493,-4.53378 1.58789,-5.96093 0.40297,-1.42716 0.77825,-2.46604 0.72266,-2.34375 0.0192,-0.0425 0.0375,-0.0855 0.0547,-0.12891 0.65973,-1.64933 1.65466,-3.08299 3.07812,-4.39258 l 0.002,-0.004 c 1.40154,-1.29373 3.32639,-2.37501 5.92478,-3.17967 2.55002,-0.84967 5.61381,-1.30662 9.22947,-1.30662 z m 21.54099,42.15635 v 19.89453 c -8.08843,5.59203 -14.84352,9.47916 -19.80664,11.35547 -5.41518,2.04719 -10.15015,3.01562 -14.16016,3.01562 -2.71885,0 -5.21559,-0.60166 -7.64062,-1.84375 -2.39825,-1.22837 -4.14516,-2.80456 -5.4375,-4.8125 -1.26209,-2.13859 -1.83399,-4.1768 -1.83399,-6.28906 0,-2.17933 0.52982,-4.12217 1.65625,-6.03711 0.007,-0.011 0.0131,-0.0221 0.0195,-0.0332 1.06153,-1.85769 2.98425,-3.79941 5.94532,-5.68946 2.67638,-1.70833 7.84998,-3.61248 15.21093,-5.30078 0.006,-0.001 0.013,-0.003 0.0195,-0.004 3.04565,-0.71988 13.13467,-2.32805 26.02735,-4.25586 z m 39.28106,76.79492 c -59.12,0 -107.04883,47.93078 -107.04883,107.05078 0,59.11 47.92883,107.03906 107.04883,107.03906 C 376.06922,511.53906 424,463.61 424,404.5 424,345.38 376.06922,297.44922 316.94922,297.44922 Z m -15.58008,53.07031 c 10.31,0 20.84109,-0.24 31.12109,0 2.92,0.22 5.41993,2.62133 5.41993,5.61133 l -0.01,0.4082 -3.76953,47.75 17.34961,-6.06836 c 11.47,-4.4 23.2689,3.71836 14.37891,13.81836 -10.82,12.45 -27.25876,29.55141 -39.21876,40.94141 -7.43,7.42 -11.72968,7.48859 -19.17968,0.0586 -13.24,-13 -26.24164,-27.43914 -39.18164,-40.86914 -9.25,-10.06 2.30125,-18.54922 14.28125,-13.94922 l 17.16015,6.00977 c -1.25,-16.28 -2.82148,-31.83961 -3.77148,-48.09961 0,-2.99 2.49992,-5.39133 5.41992,-5.61133 z M 86.37,413.44 c -11.76,0 -11.76,-17.89 0,-17.89 H 189.1 c -0.2,2.95 -0.31,5.93 -0.31,8.94 0,3.01 0.11,5.99 0.31,8.95 z M 265.81,24.26 v 29.1 c 0,65.66 15.31,69.47 69.08,69.47 h 22.03 z m 94.33,115.92 h -21.48 c -61.02,0 -90.2,-4.09 -90.2,-86.28 V 17.35 H 56.82 c -21.7,0 -39.47,17.78 -39.47,39.47 V 321.61 H 219.2 c -4.64,5.47 -8.83,11.34 -12.51,17.54 H 17.35 v 89.83 c 0,21.62 17.85,39.47 39.47,39.47 h 149.04 c 3.53,6.12 7.56,11.92 12.02,17.34 H 56.82 C 25.63,485.79 0,460.17 0,428.98 V 56.82 C 0,25.55 25.55,0 56.82,0 h 206.33 c 2.7233,-8.0139824e-4 5.28911,1.2765499 6.93,3.45 l 105.07,113.68 c 2.19,2.37 2.34,4.66 2.34,7.52 v 166.86 c -5.55,-2.98 -11.35,-5.56 -17.35,-7.71 z" />
</svg>
